<svg xmlns="http://www.w3.org/2000/svg" viewBox="0 0 1280 420" width="1280" height="420" role="img" aria-label="Copilot Spawner banner">
	<defs>
		<linearGradient id="bg" x1="0" y1="0" x2="1" y2="1">
			<stop offset="0%" stop-color="#0a0a12"/>
			<stop offset="100%" stop-color="#141320"/>
		</linearGradient>
		<radialGradient id="glow" cx="50%" cy="50%" r="50%">
			<stop offset="0%" stop-color="#6aa9ff" stop-opacity=".45"/>
			<stop offset="100%" stop-color="#6aa9ff" stop-opacity="0"/>
		</radialGradient>
		<linearGradient id="title" x1="0" y1="0" x2="1" y2="0">
			<stop offset="0%" stop-color="#f6d9e3"/>
			<stop offset="50%" stop-color="#b9d8ff"/>
			<stop offset="100%" stop-color="#c8b6ff"/>
		</linearGradient>
		<filter id="soft" x="-20%" y="-20%" width="140%" height="140%">
			<feGaussianBlur stdDeviation="10"/>
		</filter>
	</defs>
	<rect width="1280" height="420" fill="url(#bg)"/>
	<circle cx="900" cy="200" r="380" fill="url(#glow)"/>
	<circle cx="220" cy="380" r="260" fill="url(#glow)" opacity=".5"/>

	<g transform="translate(80 96)">
		<text x="0" y="90" font-family="'Quicksand', 'Segoe UI', system-ui, sans-serif" font-weight="700" font-size="84" fill="url(#title)" letter-spacing="-2">
			Copilot Spawner
		</text>
		<text x="0" y="150" font-family="'Quicksand', 'Segoe UI', system-ui, sans-serif" font-weight="500" font-size="22" fill="#b7c0cf" opacity=".9">
			A tiny, beautiful web app to spawn &amp; manage GitHub Copilot agents.
		</text>
		<text x="0" y="190" font-family="'Quicksand', 'Segoe UI', system-ui, sans-serif" font-weight="500" font-size="18" fill="#8892a7">
			Folder explorer · PTY terminal · clone · contributors · 8 accents · light &amp; dark
		</text>

		<!-- accent dots -->
		<g transform="translate(0 230)">
			<circle cx="16" cy="16" r="16" fill="hsl(0 80% 60%)"/>
			<circle cx="60" cy="16" r="16" fill="hsl(24 85% 58%)"/>
			<circle cx="104" cy="16" r="16" fill="hsl(45 90% 58%)"/>
			<circle cx="148" cy="16" r="16" fill="hsl(90 55% 55%)"/>
			<circle cx="192" cy="16" r="16" fill="hsl(210 85% 62%)"/>
			<circle cx="236" cy="16" r="16" fill="hsl(240 85% 65%)"/>
			<circle cx="280" cy="16" r="16" fill="hsl(270 80% 65%)"/>
			<circle cx="324" cy="16" r="16" fill="hsl(320 80% 65%)"/>
		</g>
	</g>

	<!-- mock window on the right -->
	<g transform="translate(770 70)">
		<rect x="0" y="0" rx="22" ry="22" width="430" height="280" fill="#0f0f18" stroke="#2a2c3a" stroke-width="1.5"/>
		<circle cx="26" cy="26" r="6" fill="#ff6d6d"/>
		<circle cx="48" cy="26" r="6" fill="#ffc14d"/>
		<circle cx="70" cy="26" r="6" fill="#6ddc8a"/>
		<text x="210" y="31" font-family="'Quicksand', system-ui, sans-serif" font-size="14" fill="#8892a7" text-anchor="middle">Copilot Spawner</text>

		<!-- list items -->
		<g transform="translate(20 64)" font-family="'Quicksand', system-ui, sans-serif">
			<rect x="0" y="0" rx="16" ry="16" width="390" height="56" fill="#1a1a28"/>
			<rect x="12" y="12" rx="10" ry="10" width="32" height="32" fill="#b9d8ff"/>
			<text x="60" y="26" font-size="16" font-weight="700" fill="#e6eaf5">docs</text>
			<text x="60" y="44" font-size="12" fill="#8892a7">folder</text>
			<circle cx="316" cy="28" r="16" fill="#2b2d3d"/>
			<polygon points="312,22 322,28 312,34" fill="#d7e1ef"/>
			<circle cx="356" cy="28" r="16" fill="hsl(24 80% 45%)"/>
			<path d="M354 20 L349 30 L355 30 L353 36 L360 26 L354 26 Z" fill="#fff"/>

			<g transform="translate(0 68)">
				<rect x="0" y="0" rx="16" ry="16" width="390" height="56" fill="#1a1a28"/>
				<rect x="12" y="12" rx="10" ry="10" width="32" height="32" fill="#b9d8ff"/>
				<text x="60" y="26" font-size="16" font-weight="700" fill="#e6eaf5">my-project</text>
				<text x="60" y="44" font-size="12" fill="#8892a7">git repository</text>
				<circle cx="316" cy="28" r="16" fill="#2b2d3d"/>
				<polygon points="312,22 322,28 312,34" fill="#d7e1ef"/>
				<circle cx="356" cy="28" r="16" fill="hsl(24 80% 45%)"/>
				<path d="M354 20 L349 30 L355 30 L353 36 L360 26 L354 26 Z" fill="#fff"/>
			</g>

			<g transform="translate(0 136)">
				<rect x="0" y="0" rx="16" ry="16" width="390" height="56" fill="#1a1a28"/>
				<rect x="12" y="12" rx="10" ry="10" width="32" height="32" fill="#c8e1ff"/>
				<text x="60" y="26" font-size="16" font-weight="700" fill="#e6eaf5">agent · running</text>
				<text x="60" y="44" font-size="12" fill="#8892a7">pid 1287 · 21:04</text>
				<rect x="296" y="12" rx="16" ry="16" width="40" height="32" fill="#1f2a1f"/>
				<text x="316" y="32" font-family="monospace" font-size="13" fill="#8fd08f" text-anchor="middle">&gt;_</text>
				<circle cx="356" cy="28" r="16" fill="hsl(0 55% 42%)"/>
				<rect x="349" y="21" rx="2" ry="2" width="14" height="14" fill="#fff"/>
			</g>
		</g>
	</g>
</svg>
